<svg xmlns="http://www.w3.org/2000/svg" viewBox="0 0 800 450" width="100%" height="100%">
  <rect width="800" height="450" fill="#f8fafc" rx="8"/>
  <path d="M 50 0 L 50 450 M 100 0 L 100 450 M 150 0 L 150 450 M 200 0 L 200 450 M 250 0 L 250 450 M 300 0 L 300 450 M 350 0 L 350 450 M 400 0 L 400 450 M 450 0 L 450 450 M 500 0 L 500 450 M 550 0 L 550 450 M 600 0 L 600 450 M 650 0 L 650 450 M 700 0 L 700 450 M 750 0 L 750 450" stroke="#f1f5f9" stroke-width="1"/>
  <path d="M 0 50 L 800 50 M 0 100 L 800 100 M 0 150 L 800 150 M 0 200 L 800 200 M 0 250 L 800 250 M 0 300 L 800 300 M 0 350 L 800 350 M 0 400 L 800 400" stroke="#f1f5f9" stroke-width="1"/>
  
  <!-- Calzada Común / Street -->
  <rect x="50" y="280" width="700" height="90" fill="#e2e8f0" stroke="#94a3b8" stroke-width="2" stroke-dasharray="4 4" rx="4"/>
  <text x="400" y="333" font-family="'Inter', sans-serif" font-size="14" fill="#64748b" text-anchor="middle" font-weight="500" letter-spacing="2">CALLE DE CIRCULACIÓN COMÚN</text>

  <!-- Viviendas -->
  <!-- Vivienda 1 -->
  <rect x="70" y="80" width="130" height="160" fill="#ffffff" stroke="#475569" stroke-width="2" rx="2"/>
  <text x="135" y="150" font-family="'Inter', sans-serif" font-size="16" fill="#334155" text-anchor="middle" font-weight="600">VIVIENDA 1</text>
  <text x="135" y="175" font-family="'Inter', sans-serif" font-size="12" fill="#64748b" text-anchor="middle">Sector Afectado</text>
  <path d="M 200 180 Q 215 190 205 210" stroke="#ef4444" stroke-width="2" fill="none" stroke-dasharray="2 2"/>
  <circle cx="202" cy="182" r="3" fill="#ef4444"/>

  <!-- Vivienda 2 -->
  <rect x="235" y="80" width="130" height="160" fill="#ffffff" stroke="#94a3b8" stroke-width="2" rx="2"/>
  <text x="300" y="160" font-family="'Inter', sans-serif" font-size="16" fill="#475569" text-anchor="middle" font-weight="600">VIVIENDA 2</text>

  <!-- Vivienda 3 -->
  <rect x="400" y="80" width="130" height="160" fill="#ffffff" stroke="#94a3b8" stroke-width="2" rx="2"/>
  <text x="465" y="160" font-family="'Inter', sans-serif" font-size="16" fill="#475569" text-anchor="middle" font-weight="600">VIVIENDA 3</text>

  <!-- Vivienda 4 -->
  <rect x="565" y="80" width="130" height="160" fill="#ffffff" stroke="#94a3b8" stroke-width="2" rx="2"/>
  <text x="630" y="160" font-family="'Inter', sans-serif" font-size="16" fill="#475569" text-anchor="middle" font-weight="600">VIVIENDA 4</text>
  
  <!-- Outer complex boundaries -->
  <rect x="30" y="40" width="740" height="370" fill="none" stroke="#cbd5e1" stroke-width="1" rx="6"/>
  <text x="40" y="28" font-family="'Inter', sans-serif" font-size="11" fill="#94a3b8" font-weight="500" letter-spacing="1">ESQUEMA GENERAL DE IMPLANTACIÓN (AV. PADRE CLARET)</text>
</svg>
